<svg width="40" height="45" viewBox="0 0 40 45" fill="none" xmlns="http://www.w3.org/2000/svg">
<g id="linkedin-in-brands 1" clip-path="url(#clip0_14_36)">
<path id="Vector" d="M8.81367 39.3751H0.650391V13.087H8.81367V39.3751ZM4.72764 9.50107C2.11729 9.50107 0 7.33897 0 4.72861C1.86838e-08 3.47477 0.498089 2.27227 1.38469 1.38567C2.2713 0.499065 3.47379 0.000976562 4.72764 0.000976562C5.98148 0.000976562 7.18398 0.499065 8.07058 1.38567C8.95718 2.27227 9.45527 3.47477 9.45527 4.72861C9.45527 7.33897 7.33711 9.50107 4.72764 9.50107ZM39.3662 39.3751H31.2205V26.5782C31.2205 23.5284 31.159 19.6173 26.9763 19.6173C22.732 19.6173 22.0816 22.9308 22.0816 26.3585V39.3751H13.9271V13.087H21.7564V16.673H21.8707C22.9605 14.6075 25.6228 12.4278 29.5945 12.4278C37.8562 12.4278 39.375 17.8683 39.375 24.9347V39.3751H39.3662Z" fill="#131114"/>
</g>
<defs>
<clipPath id="clip0_14_36">
<rect width="39.375" height="45" fill="white"/>
</clipPath>
</defs>
</svg>
