<svg width="40" height="45" viewBox="0 0 40 45" fill="none" xmlns="http://www.w3.org/2000/svg">
<g id="instagram-brands 1" clip-path="url(#clip0_14_34)">
<path id="Vector" d="M19.7363 12.3923C14.1351 12.3923 9.61715 16.9011 9.61715 22.491C9.61715 28.0808 14.1351 32.5896 19.7363 32.5896C25.3375 32.5896 29.8554 28.0808 29.8554 22.491C29.8554 16.9011 25.3375 12.3923 19.7363 12.3923ZM19.7363 29.0564C16.1166 29.0564 13.1575 26.1121 13.1575 22.491C13.1575 18.8699 16.1078 15.9255 19.7363 15.9255C23.3647 15.9255 26.3151 18.8699 26.3151 22.491C26.3151 26.1121 23.3559 29.0564 19.7363 29.0564ZM32.6296 11.9792C32.6296 13.2888 31.5728 14.3347 30.2694 14.3347C28.9571 14.3347 27.9091 13.28 27.9091 11.9792C27.9091 10.6785 28.9659 9.62378 30.2694 9.62378C31.5728 9.62378 32.6296 10.6785 32.6296 11.9792ZM39.3317 14.3699C39.182 11.2146 38.4598 8.41968 36.1436 6.11694C33.8362 3.81421 31.0356 3.09351 27.8739 2.9353C24.6153 2.75073 14.8485 2.75073 11.5899 2.9353C8.43702 3.08472 5.63642 3.80542 3.3202 6.10815C1.00399 8.41089 0.290626 11.2058 0.132102 14.3611C-0.0528433 17.613 -0.0528433 27.3601 0.132102 30.6121C0.281819 33.7673 1.00399 36.5623 3.3202 38.865C5.63642 41.1677 8.42821 41.8884 11.5899 42.0466C14.8485 42.2312 24.6153 42.2312 27.8739 42.0466C31.0356 41.8972 33.8362 41.1765 36.1436 38.865C38.451 36.5623 39.1731 33.7673 39.3317 30.6121C39.5166 27.3601 39.5166 17.6218 39.3317 14.3699ZM35.122 34.1013C34.435 35.824 33.1052 37.1511 31.3702 37.8455C28.7722 38.8738 22.6073 38.6365 19.7363 38.6365C16.8652 38.6365 10.6916 38.865 8.10236 37.8455C6.3762 37.1599 5.04636 35.8328 4.35061 34.1013C3.3202 31.5085 3.55799 25.3562 3.55799 22.491C3.55799 19.6257 3.32901 13.4646 4.35061 10.8806C5.03755 9.15796 6.3674 7.83081 8.10236 7.13647C10.7004 6.10815 16.8652 6.34546 19.7363 6.34546C22.6073 6.34546 28.781 6.11694 31.3702 7.13647C33.0964 7.82202 34.4262 9.14917 35.122 10.8806C36.1524 13.4734 35.9146 19.6257 35.9146 22.491C35.9146 25.3562 36.1524 31.5173 35.122 34.1013Z" fill="#131114"/>
</g>
<defs>
<clipPath id="clip0_14_34">
<rect width="39.455" height="45" fill="white"/>
</clipPath>
</defs>
</svg>
