<svg width="45" height="45" viewBox="0 0 45 45" fill="none" xmlns="http://www.w3.org/2000/svg">
<g id="twitter-brands 1">
<path id="Vector" d="M40.3743 13.3345C40.4029 13.7343 40.4029 14.1341 40.4029 14.5338C40.4029 26.726 31.1231 40.7743 14.1624 40.7743C8.93716 40.7743 4.08313 39.2609 0 36.6341C0.742412 36.7197 1.45617 36.7482 2.22715 36.7482C6.53862 36.7482 10.5076 35.2921 13.677 32.8079C9.62244 32.7222 6.22459 30.0668 5.05389 26.412C5.625 26.4976 6.19603 26.5547 6.7957 26.5547C7.62372 26.5547 8.45183 26.4404 9.22271 26.2407C4.99685 25.384 1.82733 21.6721 1.82733 17.1892V17.0751C3.05508 17.7604 4.48286 18.1886 5.99607 18.2457C3.51193 16.5896 1.88446 13.7628 1.88446 10.5648C1.88446 8.85167 2.34123 7.28124 3.14077 5.91067C7.68076 11.5071 14.505 15.1619 22.1572 15.5617C22.0145 14.8764 21.9288 14.1626 21.9288 13.4488C21.9288 8.36625 26.0405 4.22607 31.1515 4.22607C33.807 4.22607 36.2054 5.33965 37.8901 7.13851C39.9744 6.73878 41.9731 5.9678 43.7435 4.91136C43.0581 7.0529 41.602 8.85176 39.6889 9.99381C41.5449 9.79403 43.3438 9.27996 44.9998 8.5662C43.7437 10.3935 42.1732 12.021 40.3743 13.3345Z" fill="#131114"/>
</g>
</svg>
