<svg width="51" height="45" viewBox="0 0 51 45" fill="none" xmlns="http://www.w3.org/2000/svg">
<g id="youtube-brands 1">
<path id="Vector" d="M48.3095 10.9057C47.7575 8.82712 46.131 7.19007 44.0658 6.63451C40.3226 5.625 25.3125 5.625 25.3125 5.625C25.3125 5.625 10.3025 5.625 6.55919 6.63451C4.49402 7.19016 2.86752 8.82712 2.31548 10.9057C1.31247 14.6733 1.31247 22.5341 1.31247 22.5341C1.31247 22.5341 1.31247 30.3949 2.31548 34.1625C2.86752 36.2411 4.49402 37.8099 6.55919 38.3655C10.3025 39.375 25.3125 39.375 25.3125 39.375C25.3125 39.375 40.3225 39.375 44.0658 38.3655C46.131 37.8099 47.7575 36.2411 48.3095 34.1625C49.3125 30.3949 49.3125 22.5341 49.3125 22.5341C49.3125 22.5341 49.3125 14.6733 48.3095 10.9057ZM20.4034 29.6711V15.3971L32.9488 22.5343L20.4034 29.6711Z" fill="#131114"/>
</g>
</svg>
